<svg width="499" height="348" viewBox="0 0 499 348" fill="none" xmlns="http://www.w3.org/2000/svg">
<g clip-path="url(#clip0_26_2)">
<path d="M211.706 330H217.706V324V260.204V209.771V16.2292V10.2292H211.706H151.522H148.352L146.565 12.8486L11.043 211.563L10 213.093V214.944V260.204V266.204H16H142.058V324V330H148.058H211.706ZM276.582 92.9534L276.571 92.9789L276.56 93.0045C270.01 108.714 265.41 125.428 262.743 143.128C260.099 160.673 258.779 178.501 258.779 196.611C258.779 220.081 261.723 240.735 267.759 258.461C273.746 276.044 282.056 290.873 292.796 302.787L292.85 302.847L292.906 302.906C303.87 314.428 316.562 323.115 330.949 328.906L330.97 328.914L330.99 328.922C345.591 334.676 361.208 337.53 377.786 337.53C400.203 337.53 419.837 333.213 436.469 324.32L436.487 324.311L436.504 324.302C453.423 315.114 466.394 301.896 475.314 284.765C484.52 267.64 489 247.524 489 224.629C489 203.272 485.279 184.772 477.547 169.367C469.849 153.744 458.814 141.763 444.444 133.659C430.367 125.269 413.691 121.211 394.672 121.211C382.595 121.211 371.768 122.863 362.307 126.317C353.022 129.706 344.975 134.386 338.274 140.419C336.19 142.287 334.212 144.258 332.339 146.329C333.272 138.997 334.616 132.169 336.362 125.838C339.615 114.795 344.583 105.361 351.213 97.4405C357.645 89.7564 366.52 83.6945 378.118 79.3951C389.944 75.1176 405.207 72.8641 424.115 72.8641C430.193 72.8641 436.274 73.2766 442.359 74.1027L442.503 74.1223L442.648 74.1349C449.006 74.6853 454.726 75.6414 459.83 76.9787L467.351 78.949V71.1746V19.0174V14.1445L462.582 13.145C456.677 11.9073 449.564 11.167 441.321 10.8697C433.184 10.293 426 10 419.785 10C393.599 10 370.908 13.5096 351.869 20.7261C333.259 27.6025 317.617 37.3892 305.092 50.1628L305.09 50.1641C293.011 62.4901 283.507 76.7676 276.582 92.9534Z" stroke="white" stroke-width="12"/>
</g>
<defs>
<clipPath id="clip0_26_2">
<rect width="499" height="348" fill="white"/>
</clipPath>
</defs>
</svg>
